<mxfile host="app.diagrams.net" modified="2024-07-22T16:48:25.481Z" agent="Mozilla/5.0 (Windows NT 10.0; Win64; x64) AppleWebKit/537.36 (KHTML, like Gecko) Chrome/126.0.0.0 Safari/537.36 Edg/126.0.0.0" etag="gcYm2afGnD5j5JZtwKCd" version="24.7.1" type="device">
  <diagram name="Page-1" id="SOzKpjrKNrljmNc95kWB">
    <mxGraphModel dx="2005" dy="654" grid="1" gridSize="10" guides="1" tooltips="1" connect="1" arrows="1" fold="1" page="1" pageScale="1" pageWidth="850" pageHeight="1100" math="0" shadow="0">
      <root>
        <mxCell id="0" />
        <mxCell id="1" parent="0" />
        <mxCell id="Z9yHysJouAdtshyAXCM2-1" value="User" style="rounded=0;whiteSpace=wrap;html=1;" vertex="1" parent="1">
          <mxGeometry x="-120" y="130" width="120" height="60" as="geometry" />
        </mxCell>
        <mxCell id="Z9yHysJouAdtshyAXCM2-2" value="Book" style="rounded=0;whiteSpace=wrap;html=1;" vertex="1" parent="1">
          <mxGeometry x="40" y="390" width="120" height="60" as="geometry" />
        </mxCell>
        <mxCell id="Z9yHysJouAdtshyAXCM2-3" value="Author" style="rounded=0;whiteSpace=wrap;html=1;" vertex="1" parent="1">
          <mxGeometry x="480" y="130" width="120" height="60" as="geometry" />
        </mxCell>
        <mxCell id="Z9yHysJouAdtshyAXCM2-4" value="Category" style="rounded=0;whiteSpace=wrap;html=1;" vertex="1" parent="1">
          <mxGeometry x="510" y="280" width="120" height="60" as="geometry" />
        </mxCell>
        <mxCell id="Z9yHysJouAdtshyAXCM2-5" value="Phone Number" style="ellipse;whiteSpace=wrap;html=1;" vertex="1" parent="1">
          <mxGeometry x="30" y="80" width="80" height="40" as="geometry" />
        </mxCell>
        <mxCell id="Z9yHysJouAdtshyAXCM2-6" value="Registration Date" style="ellipse;whiteSpace=wrap;html=1;" vertex="1" parent="1">
          <mxGeometry x="80" y="120" width="80" height="40" as="geometry" />
        </mxCell>
        <mxCell id="Z9yHysJouAdtshyAXCM2-7" value="First Name" style="ellipse;whiteSpace=wrap;html=1;" vertex="1" parent="1">
          <mxGeometry x="-280" y="120" width="80" height="40" as="geometry" />
        </mxCell>
        <mxCell id="Z9yHysJouAdtshyAXCM2-9" value="User ID" style="ellipse;whiteSpace=wrap;html=1;" vertex="1" parent="1">
          <mxGeometry x="-300" y="170" width="80" height="40" as="geometry" />
        </mxCell>
        <mxCell id="Z9yHysJouAdtshyAXCM2-10" value="Last Login Date" style="ellipse;whiteSpace=wrap;html=1;" vertex="1" parent="1">
          <mxGeometry x="110" y="160" width="80" height="40" as="geometry" />
        </mxCell>
        <mxCell id="Z9yHysJouAdtshyAXCM2-11" value="Last Name" style="ellipse;whiteSpace=wrap;html=1;" vertex="1" parent="1">
          <mxGeometry x="-230" y="80" width="80" height="40" as="geometry" />
        </mxCell>
        <mxCell id="Z9yHysJouAdtshyAXCM2-12" value="Email" style="ellipse;whiteSpace=wrap;html=1;" vertex="1" parent="1">
          <mxGeometry x="-180" y="40" width="80" height="40" as="geometry" />
        </mxCell>
        <mxCell id="Z9yHysJouAdtshyAXCM2-13" value="Date Of Birth" style="ellipse;whiteSpace=wrap;html=1;" vertex="1" parent="1">
          <mxGeometry x="-20" y="40" width="80" height="40" as="geometry" />
        </mxCell>
        <mxCell id="Z9yHysJouAdtshyAXCM2-14" value="Password" style="ellipse;whiteSpace=wrap;html=1;" vertex="1" parent="1">
          <mxGeometry x="-100" y="60" width="80" height="40" as="geometry" />
        </mxCell>
        <mxCell id="Z9yHysJouAdtshyAXCM2-18" value="" style="endArrow=none;html=1;rounded=0;exitX=1;exitY=0.5;exitDx=0;exitDy=0;" edge="1" parent="1" source="Z9yHysJouAdtshyAXCM2-9">
          <mxGeometry width="50" height="50" relative="1" as="geometry">
            <mxPoint x="-70" y="210" as="sourcePoint" />
            <mxPoint x="-120" y="160" as="targetPoint" />
          </mxGeometry>
        </mxCell>
        <mxCell id="Z9yHysJouAdtshyAXCM2-19" value="" style="endArrow=none;html=1;rounded=0;exitX=1;exitY=0.5;exitDx=0;exitDy=0;" edge="1" parent="1" source="Z9yHysJouAdtshyAXCM2-7">
          <mxGeometry width="50" height="50" relative="1" as="geometry">
            <mxPoint x="-210" y="200" as="sourcePoint" />
            <mxPoint x="-120" y="160" as="targetPoint" />
          </mxGeometry>
        </mxCell>
        <mxCell id="Z9yHysJouAdtshyAXCM2-20" value="" style="endArrow=none;html=1;rounded=0;exitX=1;exitY=0.5;exitDx=0;exitDy=0;entryX=0;entryY=0.5;entryDx=0;entryDy=0;" edge="1" parent="1" source="Z9yHysJouAdtshyAXCM2-11" target="Z9yHysJouAdtshyAXCM2-1">
          <mxGeometry width="50" height="50" relative="1" as="geometry">
            <mxPoint x="-200" y="210" as="sourcePoint" />
            <mxPoint x="-103" y="186" as="targetPoint" />
          </mxGeometry>
        </mxCell>
        <mxCell id="Z9yHysJouAdtshyAXCM2-21" value="" style="endArrow=none;html=1;rounded=0;exitX=0.5;exitY=1;exitDx=0;exitDy=0;entryX=0;entryY=0.5;entryDx=0;entryDy=0;" edge="1" parent="1" source="Z9yHysJouAdtshyAXCM2-12" target="Z9yHysJouAdtshyAXCM2-1">
          <mxGeometry width="50" height="50" relative="1" as="geometry">
            <mxPoint x="-190" y="220" as="sourcePoint" />
            <mxPoint x="-93" y="196" as="targetPoint" />
          </mxGeometry>
        </mxCell>
        <mxCell id="Z9yHysJouAdtshyAXCM2-22" value="" style="endArrow=none;html=1;rounded=0;exitX=0.5;exitY=1;exitDx=0;exitDy=0;entryX=0.5;entryY=0;entryDx=0;entryDy=0;" edge="1" parent="1" source="Z9yHysJouAdtshyAXCM2-14" target="Z9yHysJouAdtshyAXCM2-1">
          <mxGeometry width="50" height="50" relative="1" as="geometry">
            <mxPoint x="-180" y="230" as="sourcePoint" />
            <mxPoint x="-83" y="206" as="targetPoint" />
          </mxGeometry>
        </mxCell>
        <mxCell id="Z9yHysJouAdtshyAXCM2-23" value="" style="endArrow=none;html=1;rounded=0;exitX=0.5;exitY=1;exitDx=0;exitDy=0;" edge="1" parent="1" source="Z9yHysJouAdtshyAXCM2-13">
          <mxGeometry width="50" height="50" relative="1" as="geometry">
            <mxPoint x="-170" y="240" as="sourcePoint" />
            <mxPoint y="160" as="targetPoint" />
          </mxGeometry>
        </mxCell>
        <mxCell id="Z9yHysJouAdtshyAXCM2-24" value="" style="endArrow=none;html=1;rounded=0;exitX=0;exitY=0.5;exitDx=0;exitDy=0;entryX=1;entryY=0.5;entryDx=0;entryDy=0;" edge="1" parent="1" source="Z9yHysJouAdtshyAXCM2-5" target="Z9yHysJouAdtshyAXCM2-1">
          <mxGeometry width="50" height="50" relative="1" as="geometry">
            <mxPoint x="-160" y="250" as="sourcePoint" />
            <mxPoint x="-63" y="226" as="targetPoint" />
          </mxGeometry>
        </mxCell>
        <mxCell id="Z9yHysJouAdtshyAXCM2-25" value="" style="endArrow=none;html=1;rounded=0;exitX=1;exitY=0.5;exitDx=0;exitDy=0;entryX=0;entryY=0.5;entryDx=0;entryDy=0;" edge="1" parent="1" source="Z9yHysJouAdtshyAXCM2-1" target="Z9yHysJouAdtshyAXCM2-10">
          <mxGeometry width="50" height="50" relative="1" as="geometry">
            <mxPoint x="-150" y="260" as="sourcePoint" />
            <mxPoint x="-53" y="236" as="targetPoint" />
          </mxGeometry>
        </mxCell>
        <mxCell id="Z9yHysJouAdtshyAXCM2-26" value="" style="endArrow=none;html=1;rounded=0;exitX=1;exitY=0.5;exitDx=0;exitDy=0;entryX=0;entryY=0.5;entryDx=0;entryDy=0;" edge="1" parent="1" source="Z9yHysJouAdtshyAXCM2-1" target="Z9yHysJouAdtshyAXCM2-6">
          <mxGeometry width="50" height="50" relative="1" as="geometry">
            <mxPoint x="-140" y="270" as="sourcePoint" />
            <mxPoint x="-43" y="246" as="targetPoint" />
          </mxGeometry>
        </mxCell>
        <mxCell id="Z9yHysJouAdtshyAXCM2-27" value="User ID" style="ellipse;whiteSpace=wrap;html=1;" vertex="1" parent="1">
          <mxGeometry x="350" y="50" width="80" height="40" as="geometry" />
        </mxCell>
        <mxCell id="Z9yHysJouAdtshyAXCM2-29" value="First Name" style="ellipse;whiteSpace=wrap;html=1;" vertex="1" parent="1">
          <mxGeometry x="360" y="120" width="80" height="40" as="geometry" />
        </mxCell>
        <mxCell id="Z9yHysJouAdtshyAXCM2-30" value="Last Name" style="ellipse;whiteSpace=wrap;html=1;" vertex="1" parent="1">
          <mxGeometry x="345" y="190" width="80" height="40" as="geometry" />
        </mxCell>
        <mxCell id="Z9yHysJouAdtshyAXCM2-31" value="Date Of Birth" style="ellipse;whiteSpace=wrap;html=1;" vertex="1" parent="1">
          <mxGeometry x="500" y="30" width="80" height="40" as="geometry" />
        </mxCell>
      </root>
    </mxGraphModel>
  </diagram>
</mxfile>
